<svg version="1.0" xmlns="http://www.w3.org/2000/svg"
 width="32.000000pt" height="32.000000pt" viewBox="0 0 32.000000 32.000000"
 preserveAspectRatio="xMidYMid meet">

<g transform="translate(0.000000,32.000000) scale(0.006400,-0.006400)"
fill="#000000" stroke="none">
<path d="M0 2500 l0 -2500 2500 0 2500 0 0 2500 0 2500 -2500 0 -2500 0 0
-2500z m3458 1797 c28 -26 31 -57 16 -165 -16 -115 -48 -471 -43 -476 2 -2 69
-16 149 -30 231 -42 334 -67 348 -84 8 -11 12 -58 12 -149 0 -73 5 -201 11
-285 l11 -152 -23 -19 c-14 -11 -31 -16 -43 -12 -26 7 -328 51 -415 60 l-63 6
6 -118 c4 -65 9 -140 12 -167 l6 -48 47 6 c103 14 440 26 465 16 36 -13 41
-33 55 -205 6 -82 20 -192 31 -244 11 -52 18 -103 14 -113 -6 -21 -28 -27
-259 -73 -99 -19 -199 -40 -221 -47 l-41 -13 47 -210 c26 -115 62 -258 79
-317 39 -135 47 -188 29 -210 -8 -11 -141 -61 -325 -123 -241 -80 -318 -103
-336 -96 -53 20 -143 295 -232 703 l-17 76 -126 -34 c-70 -18 -156 -42 -192
-52 l-65 -19 2 -52 c3 -76 67 -384 118 -567 50 -181 53 -207 25 -231 -24 -21
-675 -243 -712 -243 -18 0 -33 8 -42 23 -30 46 -114 374 -165 645 l-27 142
-169 -84 c-94 -46 -201 -102 -240 -125 -82 -48 -102 -51 -116 -13 -7 17 -13
177 -16 423 l-6 395 29 32 c36 40 144 87 313 138 l130 38 3 310 c2 171 2 313
1 315 -4 7 -168 -38 -297 -81 -139 -46 -159 -43 -174 19 -17 66 -23 348 -12
537 12 196 21 247 49 275 39 39 255 103 418 123 l92 12 6 55 c14 131 46 349
55 383 8 26 18 39 33 43 88 20 142 27 383 51 149 15 283 24 298 20 49 -12 51
-35 22 -258 -14 -112 -29 -219 -32 -239 l-5 -36 68 -6 c37 -4 122 -9 189 -13
l121 -6 7 53 c19 145 78 472 89 490 26 46 54 50 338 47 241 -3 269 -5 287 -21z"/>
<path d="M2395 2981 l-80 -6 0 -92 c0 -51 1 -173 3 -272 l2 -178 186 46 186
46 -6 35 c-3 19 -6 124 -6 233 l0 197 -102 -2 c-57 -1 -139 -4 -183 -7z"/>
</g>
</svg>